<svg id="Layer_1" data-name="Layer 1" xmlns="http://www.w3.org/2000/svg" viewBox="0 0 637.5 185.96"><defs><style>.cls-1{fill:#8347ad;}</style></defs><polygon class="cls-1" points="247.07 124.04 251.38 124.04 251.38 134 261.58 134 261.58 124.04 265.89 124.04 265.89 148.65 261.58 148.65 261.58 138.4 251.38 138.4 251.38 148.65 247.07 148.65 247.07 124.04"/><polygon class="cls-1" points="274.39 124.04 289.85 124.04 289.85 128.31 278.7 128.31 278.7 134.1 289 134.1 289 138.33 278.7 138.33 278.7 144.39 289.85 144.39 289.85 148.65 274.39 148.65 274.39 124.04"/><path class="cls-1" d="M309.68,143.06h-8.25l-1.92,5.59H295L304,124h3.3l8.91,24.61H311.6Zm-7-4.1h5.76l-2.86-8.43Z"/><polygon class="cls-1" points="322.27 124.04 326.59 124.04 326.59 144.29 338.55 144.29 338.55 148.65 322.27 148.65 322.27 124.04"/><polygon class="cls-1" points="339.02 128.44 339.02 124.04 356.77 124.04 356.77 128.44 350.07 128.44 350.07 148.65 345.73 148.65 345.73 128.44 339.02 128.44"/><polygon class="cls-1" points="363.04 124.04 367.36 124.04 367.36 134 377.55 134 377.55 124.04 381.87 124.04 381.87 148.65 377.55 148.65 377.55 138.4 367.36 138.4 367.36 148.65 363.04 148.65 363.04 124.04"/><path class="cls-1" d="M399.28,144.36l2.58-3.13a7.1,7.1,0,0,0,6,3.56c2.14,0,3.56-1.23,3.56-2.86,0-1.34-1-2.17-2.17-2.8-1.51-.77-3.43-1.37-5-2.37a6.83,6.83,0,0,1-3.65-6.06c0-4,3.08-7.06,7.71-7.06a9.65,9.65,0,0,1,7.46,3.4l-2.39,3.26a6.82,6.82,0,0,0-5-2.4c-1.88,0-3.14,1.07-3.14,2.6a3,3,0,0,0,1.92,2.6c1.22.67,3.65,1.66,5.22,2.53a6.46,6.46,0,0,1,3.84,6c0,4.33-3.4,7.39-8.34,7.39a9.86,9.86,0,0,1-8.59-4.69"/><polygon class="cls-1" points="432.3 140.03 432.3 148.65 427.99 148.65 427.99 140.03 420.03 124.04 425 124.04 430.13 135.23 435.39 124.04 440.33 124.04 432.3 140.03"/><path class="cls-1" d="M443.51,144.36l2.58-3.13a7.1,7.1,0,0,0,6,3.56c2.14,0,3.56-1.23,3.56-2.86,0-1.34-1-2.17-2.17-2.8-1.51-.77-3.43-1.37-5-2.37a6.83,6.83,0,0,1-3.65-6.06c0-4,3.09-7.06,7.71-7.06A9.65,9.65,0,0,1,460,127l-2.39,3.26a6.82,6.82,0,0,0-5-2.4c-1.89,0-3.15,1.07-3.15,2.6a3,3,0,0,0,1.92,2.6c1.23.67,3.65,1.66,5.22,2.53a6.46,6.46,0,0,1,3.84,6c0,4.33-3.4,7.39-8.34,7.39a9.86,9.86,0,0,1-8.59-4.69"/><polygon class="cls-1" points="464.88 128.44 464.88 124.04 482.64 124.04 482.64 128.44 475.93 128.44 475.93 148.65 471.59 148.65 471.59 128.44 464.88 128.44"/><polygon class="cls-1" points="488.91 124.04 504.36 124.04 504.36 128.31 493.22 128.31 493.22 134.1 503.51 134.1 503.51 138.33 493.22 138.33 493.22 144.39 504.36 144.39 504.36 148.65 488.91 148.65 488.91 124.04"/><polygon class="cls-1" points="511.89 124.04 514.59 124.04 523.91 138.4 533.2 124.04 535.93 124.04 535.93 148.65 531.65 148.65 531.65 134.07 524.6 144.86 523.19 144.86 516.14 134.07 516.14 148.65 511.89 148.65 511.89 124.04"/><path class="cls-1" d="M223.86,37.67h13.9a.93.93,0,0,1,.89.67l14.42,48.8,16.25-48.83a1,1,0,0,1,.89-.64h7.88a.92.92,0,0,1,.88.63l16.56,48.84,14.22-48.8a.92.92,0,0,1,.89-.67h13.9a1,1,0,0,1,.89,1.24l-23.32,71.67a.93.93,0,0,1-.88.65H290.32a.92.92,0,0,1-.88-.65L274.25,63.05l-15.19,47.53a.93.93,0,0,1-.88.65H247.26a.93.93,0,0,1-.88-.64L223,38.91a.94.94,0,0,1,.89-1.24"/><path class="cls-1" d="M378,89H338.7c1.66,6.57,6.47,11.55,15.59,11.55a32.63,32.63,0,0,0,16.4-4.89,1,1,0,0,1,1.37.33l4.55,8.17a1,1,0,0,1-.28,1.28,40.19,40.19,0,0,1-22.63,7c-20,0-29-13.84-29-28.37,0-16.23,11.18-28.47,27.86-28.47,15.19,0,26.77,10,26.77,27.27a39.32,39.32,0,0,1-.38,5.33A1,1,0,0,1,378,89M338.7,78.58h27.16c-1.27-7-6.28-11.35-13.33-11.35s-12.17,4.28-13.83,11.35"/><path class="cls-1" d="M391.5,110.24V36.57a1,1,0,0,1,1-1h11.87a1,1,0,0,1,1,1v73.67a1,1,0,0,1-1,1H392.48a1,1,0,0,1-1-1"/><path class="cls-1" d="M418.33,110.24V36.57a1,1,0,0,1,1-1h11.87a1,1,0,0,1,1,1v73.67a1,1,0,0,1-1,1H419.31a1,1,0,0,1-1-1"/><path class="cls-1" d="M442.56,101.51l6.05-7.28a1,1,0,0,1,1.51,0,19.55,19.55,0,0,0,14.06,6.7c4.21,0,7.35-2.19,7.35-5.28,0-2-1.27-3.48-3.82-4.68-2.95-1.39-10-3.68-13.24-5.37-6.08-3-9.22-7.76-9.22-14,0-9.45,7.85-16.32,20-16.32a25.15,25.15,0,0,1,18.09,7.11,1.06,1.06,0,0,1,.09,1.38l-5.65,7.45a1,1,0,0,1-1.48.13,17.8,17.8,0,0,0-11.44-4.62c-3.83,0-6.09,2.09-6.09,4.58,0,1.89,1.18,3.78,4.71,5a131.21,131.21,0,0,1,12.85,5.28c6,3.18,9,7.37,9,13.73,0,9.86-8.24,17.43-21.28,17.43a27.52,27.52,0,0,1-21.53-9.78,1.08,1.08,0,0,1,0-1.34"/><path class="cls-1" d="M528.66,107.39a.87.87,0,0,1-.34,1,29.78,29.78,0,0,1-15.21,4.1c-12.26,0-18.63-7.37-18.63-21.4V38.63a.85.85,0,0,1,.85-.86h12.13a.85.85,0,0,1,.85.86V57h16.8a.85.85,0,0,1,.85.86v10a.86.86,0,0,1-.85.86h-16.8v21.5c0,6.27,2.35,9.55,7.55,9.55a16.89,16.89,0,0,0,8.07-2.31.83.83,0,0,1,1.19.45Z"/><path class="cls-1" d="M590.15,58.09v52a1.11,1.11,0,0,1-1.1,1.11H578.1a1.1,1.1,0,0,1-1.09-1.11V105a22.53,22.53,0,0,1-17.07,7.57c-15.49,0-26.48-12.55-26.48-28.67,0-16.33,11.28-28.27,26.48-28.27A22.23,22.23,0,0,1,577,63.45V58.09A1.1,1.1,0,0,1,578.1,57h10.95a1.11,1.11,0,0,1,1.1,1.11m-12.95,26c0-8.46-6.18-15.63-15-15.63s-14.91,7.17-14.91,15.63c0,8.66,6.08,15.73,14.91,15.73s15-7.17,15-15.73"/><path class="cls-1" d="M604.27,57h11a1.13,1.13,0,0,1,1.12,1.14v6.13c3.34-6,8.44-8.76,14.71-8.76a19.51,19.51,0,0,1,5.64.9,1.15,1.15,0,0,1,.76,1.19l-1,11.17a1.12,1.12,0,0,1-1.39,1A19.56,19.56,0,0,0,630,69c-7.25,0-13,4.57-13,16.42v24.64a1.13,1.13,0,0,1-1.12,1.14H604.27a1.13,1.13,0,0,1-1.12-1.14v-52A1.13,1.13,0,0,1,604.27,57"/><path class="cls-1" d="M109.33,0A74.39,74.39,0,0,0,37.14,74.36L73,74.3a1.45,1.45,0,0,0,1.44-1.41,37.2,37.2,0,0,1,37.17-35.73l0-35A2.16,2.16,0,0,0,109.33,0Z"/><path class="cls-1" d="M0,76.63a74.39,74.39,0,0,0,74.36,72.19L74.3,113a1.45,1.45,0,0,0-1.41-1.44A37.2,37.2,0,0,1,37.16,74.38l-35,.05A2.16,2.16,0,0,0,0,76.63Z"/><path class="cls-1" d="M76.6,186a74.4,74.4,0,0,0,72.2-74.36l-35.84.06a1.45,1.45,0,0,0-1.43,1.41A37.2,37.2,0,0,1,74.36,148.8l0,35A2.17,2.17,0,0,0,76.6,186Z"/><path class="cls-1" d="M186,109.36a74.4,74.4,0,0,0-74.36-72.2L111.66,73a1.46,1.46,0,0,0,1.41,1.44A37.19,37.19,0,0,1,148.8,111.6l35,0A2.16,2.16,0,0,0,186,109.36Z"/></svg>